<svg width="253" height="33" viewBox="0 0 253 33" fill="none" xmlns="http://www.w3.org/2000/svg">
<rect x="167.452" y="11.2188" width="19.5378" height="18.9076" fill="white"/>
<path d="M0 17.1176C0 14.0588 0.661765 11.3382 1.98529 8.95589C3.30882 6.54412 5.14706 4.67647 7.5 3.35294C9.88235 2 12.5735 1.32353 15.5735 1.32353C19.25 1.32353 22.3971 2.29412 25.0147 4.23529C27.6324 6.17647 29.3824 8.82353 30.2647 12.1765H21.9706C21.3529 10.8824 20.4706 9.89706 19.3235 9.22059C18.2059 8.54412 16.9265 8.20588 15.4853 8.20588C13.1618 8.20588 11.2794 9.01471 9.83823 10.6324C8.39706 12.25 7.67647 14.4118 7.67647 17.1176C7.67647 19.8235 8.39706 21.9853 9.83823 23.6029C11.2794 25.2206 13.1618 26.0294 15.4853 26.0294C16.9265 26.0294 18.2059 25.6912 19.3235 25.0147C20.4706 24.3382 21.3529 23.3529 21.9706 22.0588H30.2647C29.3824 25.4118 27.6324 28.0588 25.0147 30C22.3971 31.9118 19.25 32.8677 15.5735 32.8677C12.5735 32.8677 9.88235 32.2059 7.5 30.8824C5.14706 29.5294 3.30882 27.6618 1.98529 25.2794C0.661765 22.8971 0 20.1765 0 17.1176Z" fill="white"/>
<path d="M30.0758 20.2941C30.0758 17.7647 30.5464 15.5441 31.4876 13.6324C32.4582 11.7206 33.767 10.25 35.4141 9.22059C37.0611 8.19118 38.8994 7.67647 40.9288 7.67647C42.6641 7.67647 44.1788 8.02941 45.4729 8.73529C46.7964 9.44118 47.8111 10.3677 48.517 11.5147V8.02941H56.0611V32.6471H48.517V29.1618C47.7817 30.3088 46.7523 31.2353 45.4288 31.9412C44.1347 32.6471 42.6199 33 40.8847 33C38.8847 33 37.0611 32.4853 35.4141 31.4559C33.767 30.3971 32.4582 28.9118 31.4876 27C30.5464 25.0588 30.0758 22.8235 30.0758 20.2941ZM48.517 20.3382C48.517 18.4559 47.9876 16.9706 46.9288 15.8824C45.8994 14.7941 44.6347 14.25 43.1347 14.25C41.6347 14.25 40.3552 14.7941 39.2964 15.8824C38.267 16.9412 37.7523 18.4118 37.7523 20.2941C37.7523 22.1765 38.267 23.6765 39.2964 24.7941C40.3552 25.8824 41.6347 26.4265 43.1347 26.4265C44.6347 26.4265 45.8994 25.8824 46.9288 24.7941C47.9876 23.7059 48.517 22.2206 48.517 20.3382Z" fill="white"/>
<path d="M56.7101 20.2941C56.7101 17.7647 57.1807 15.5441 58.1219 13.6324C59.0925 11.7206 60.4013 10.25 62.0484 9.22059C63.6954 8.19118 65.5337 7.67647 67.5631 7.67647C69.1807 7.67647 70.6513 8.01471 71.9748 8.69118C73.3278 9.36765 74.3866 10.2794 75.1513 11.4265V0H82.6954V32.6471H75.1513V29.1176C74.4454 30.2941 73.4307 31.2353 72.1072 31.9412C70.8131 32.6471 69.2984 33 67.5631 33C65.5337 33 63.6954 32.4853 62.0484 31.4559C60.4013 30.3971 59.0925 28.9118 58.1219 27C57.1807 25.0588 56.7101 22.8235 56.7101 20.2941ZM75.1513 20.3382C75.1513 18.4559 74.6219 16.9706 73.5631 15.8824C72.5337 14.7941 71.269 14.25 69.769 14.25C68.269 14.25 66.9895 14.7941 65.9307 15.8824C64.9013 16.9412 64.3866 18.4118 64.3866 20.2941C64.3866 22.1765 64.9013 23.6765 65.9307 24.7941C66.9895 25.8824 68.269 26.4265 69.769 26.4265C71.269 26.4265 72.5337 25.8824 73.5631 24.7941C74.6219 23.7059 75.1513 22.2206 75.1513 20.3382Z" fill="white"/>
<path d="M83.3444 20.2941C83.3444 17.7647 83.815 15.5441 84.7562 13.6324C85.7268 11.7206 87.0356 10.25 88.6827 9.22059C90.3297 8.19118 92.168 7.67647 94.1974 7.67647C95.9327 7.67647 97.4474 8.02941 98.7415 8.73529C100.065 9.44118 101.08 10.3677 101.786 11.5147V8.02941H109.33V32.6471H101.786V29.1618C101.05 30.3088 100.021 31.2353 98.6974 31.9412C97.4033 32.6471 95.8886 33 94.1533 33C92.1533 33 90.3297 32.4853 88.6827 31.4559C87.0356 30.3971 85.7268 28.9118 84.7562 27C83.815 25.0588 83.3444 22.8235 83.3444 20.2941ZM101.786 20.3382C101.786 18.4559 101.256 16.9706 100.197 15.8824C99.168 14.7941 97.9033 14.25 96.4033 14.25C94.9033 14.25 93.6238 14.7941 92.565 15.8824C91.5356 16.9412 91.0209 18.4118 91.0209 20.2941C91.0209 22.1765 91.5356 23.6765 92.565 24.7941C93.6238 25.8824 94.9033 26.4265 96.4033 26.4265C97.9033 26.4265 99.168 25.8824 100.197 24.7941C101.256 23.7059 101.786 22.2206 101.786 20.3382Z" fill="white"/>
<path d="M121.493 33C119.346 33 117.435 32.6324 115.758 31.8971C114.082 31.1618 112.758 30.1618 111.788 28.8971C110.817 27.6029 110.273 26.1618 110.155 24.5735H117.611C117.699 25.4265 118.096 26.1176 118.802 26.6471C119.508 27.1765 120.376 27.4412 121.405 27.4412C122.346 27.4412 123.067 27.2647 123.567 26.9118C124.096 26.5294 124.361 26.0441 124.361 25.4559C124.361 24.75 123.993 24.2353 123.258 23.9118C122.523 23.5588 121.332 23.1765 119.685 22.7647C117.92 22.3529 116.449 21.9265 115.273 21.4853C114.096 21.0147 113.082 20.2941 112.229 19.3235C111.376 18.3235 110.949 16.9853 110.949 15.3088C110.949 13.8971 111.332 12.6177 112.096 11.4706C112.891 10.2941 114.038 9.36765 115.538 8.69118C117.067 8.01471 118.876 7.67647 120.964 7.67647C124.052 7.67647 126.479 8.44118 128.243 9.97059C130.038 11.5 131.067 13.5294 131.332 16.0588H124.361C124.243 15.2059 123.861 14.5294 123.214 14.0294C122.596 13.5294 121.773 13.2794 120.743 13.2794C119.861 13.2794 119.185 13.4559 118.714 13.8088C118.243 14.1324 118.008 14.5882 118.008 15.1765C118.008 15.8824 118.376 16.4118 119.111 16.7647C119.876 17.1176 121.052 17.4706 122.641 17.8235C124.464 18.2941 125.949 18.7647 127.096 19.2353C128.243 19.6765 129.243 20.4118 130.096 21.4412C130.979 22.4412 131.435 23.7941 131.464 25.5C131.464 26.9412 131.052 28.2353 130.229 29.3824C129.435 30.5 128.273 31.3824 126.743 32.0294C125.243 32.6765 123.493 33 121.493 33Z" fill="white"/>
<path d="M146.491 26.25V32.6471H142.653C139.918 32.6471 137.785 31.9853 136.256 30.6618C134.727 29.3088 133.962 27.1176 133.962 24.0882V14.2941H130.962V8.02941H133.962V2.02941H141.506V8.02941H146.447V14.2941H141.506V24.1765C141.506 24.9118 141.682 25.4412 142.035 25.7647C142.388 26.0882 142.977 26.25 143.8 26.25H146.491Z" fill="white"/>
<path d="M154.929 12.1324C155.811 10.7794 156.914 9.72059 158.238 8.95589C159.561 8.16177 161.032 7.76471 162.649 7.76471V15.75H160.576C158.693 15.75 157.282 16.1618 156.341 16.9853C155.399 17.7794 154.929 19.1912 154.929 21.2206V32.6471H147.385V8.02941H154.929V12.1324Z" fill="white"/>
<path d="M161.446 20.2941C161.446 17.7647 161.917 15.5441 162.858 13.6324C163.829 11.7206 165.138 10.25 166.785 9.22059C168.432 8.19118 170.27 7.67647 172.299 7.67647C174.035 7.67647 175.549 8.02941 176.844 8.73529C178.167 9.44118 179.182 10.3677 179.888 11.5147V8.02941H187.432V32.6471H179.888V29.1618C179.152 30.3088 178.123 31.2353 176.799 31.9412C175.505 32.6471 173.991 33 172.255 33C170.255 33 168.432 32.4853 166.785 31.4559C165.138 30.3971 163.829 28.9118 162.858 27C161.917 25.0588 161.446 22.8235 161.446 20.2941ZM179.888 20.3382C179.888 18.4559 179.358 16.9706 178.299 15.8824C177.27 14.7941 176.005 14.25 174.505 14.25C173.005 14.25 171.726 14.7941 170.667 15.8824C169.638 16.9412 169.123 18.4118 169.123 20.2941C169.123 22.1765 169.638 23.6765 170.667 24.7941C171.726 25.8824 173.005 26.4265 174.505 26.4265C176.005 26.4265 177.27 25.8824 178.299 24.7941C179.358 23.7059 179.888 22.2206 179.888 20.3382Z" fill="white"/>
<path d="M168.988 19.7272C170.039 19.7272 170.892 18.8748 170.892 17.8233C170.892 16.7718 170.039 15.9194 168.988 15.9194C167.936 15.9194 167.084 16.7718 167.084 17.8233C167.084 18.8748 167.936 19.7272 168.988 19.7272Z" fill="#25d366"/>
<path d="M172.415 16.6811C173.466 16.6811 174.319 15.8287 174.319 14.7772C174.319 13.7257 173.466 12.8733 172.415 12.8733C171.363 12.8733 170.511 13.7257 170.511 14.7772C170.511 15.8287 171.363 16.6811 172.415 16.6811Z" fill="#25d366"/>
<path d="M176.984 16.6811C178.036 16.6811 178.888 15.8287 178.888 14.7772C178.888 13.7257 178.036 12.8733 176.984 12.8733C175.933 12.8733 175.08 13.7257 175.08 14.7772C175.08 15.8287 175.933 16.6811 176.984 16.6811Z" fill="#25d366"/>
<path d="M180.411 19.7272C181.463 19.7272 182.315 18.8748 182.315 17.8233C182.315 16.7718 181.463 15.9194 180.411 15.9194C179.36 15.9194 178.507 16.7718 178.507 17.8233C178.507 18.8748 179.36 19.7272 180.411 19.7272Z" fill="#25d366"/>
<path d="M178.766 21.9053C178.104 21.1286 177.548 20.466 176.878 19.6892C176.527 19.278 176.078 18.8667 175.545 18.684C175.461 18.6535 175.377 18.6307 175.294 18.6154C175.103 18.585 174.897 18.585 174.699 18.585C174.501 18.585 174.296 18.585 174.098 18.623C174.014 18.6383 173.93 18.6611 173.847 18.6916C173.313 18.8744 172.872 19.2856 172.514 19.6968C171.851 20.4736 171.295 21.1362 170.625 21.913C169.628 22.9106 168.401 24.0148 168.63 25.5608C168.851 26.3376 169.407 27.1068 170.404 27.3276C170.96 27.4418 172.735 26.9925 174.623 26.9925H174.76C176.649 26.9925 178.423 27.4342 178.979 27.3276C179.977 27.1068 180.533 26.33 180.754 25.5608C180.99 24.0072 179.764 22.903 178.766 21.9053Z" fill="#25d366"/>
<path d="M213.958 11.6469C213.958 13.441 213.546 15.088 212.723 16.588C211.899 18.0586 210.635 19.2498 208.929 20.1616C207.223 21.0733 205.105 21.5292 202.576 21.5292H197.899V32.6469H190.355V1.67627H202.576C205.046 1.67627 207.135 2.10274 208.84 2.95568C210.546 3.80862 211.826 4.98509 212.679 6.48509C213.532 7.98509 213.958 9.70568 213.958 11.6469ZM202.002 15.5292C203.443 15.5292 204.517 15.191 205.223 14.5145C205.929 13.838 206.282 12.8822 206.282 11.6469C206.282 10.4116 205.929 9.45568 205.223 8.77921C204.517 8.10274 203.443 7.7645 202.002 7.7645H197.899V15.5292H202.002Z" fill="white"/>
<path d="M237.783 19.941C237.783 20.6469 237.738 21.3821 237.65 22.1469H220.577C220.694 23.6763 221.18 24.8527 222.033 25.6763C222.915 26.4704 223.988 26.8674 225.253 26.8674C227.136 26.8674 228.444 26.0733 229.18 24.4851H237.209C236.797 26.1027 236.047 27.5586 234.959 28.8527C233.9 30.1469 232.562 31.1616 230.944 31.8969C229.327 32.6321 227.518 32.9998 225.518 32.9998C223.106 32.9998 220.959 32.4851 219.077 31.4557C217.194 30.4263 215.724 28.9557 214.665 27.0439C213.606 25.1322 213.077 22.8969 213.077 20.338C213.077 17.7792 213.591 15.5439 214.621 13.6322C215.68 11.7204 217.15 10.2498 219.033 9.22039C220.915 8.19098 223.077 7.67627 225.518 7.67627C227.9 7.67627 230.018 8.17627 231.871 9.17627C233.724 10.1763 235.165 11.6027 236.194 13.4557C237.253 15.3086 237.783 17.4704 237.783 19.941ZM230.062 17.9557C230.062 16.6616 229.621 15.6322 228.738 14.8674C227.856 14.1027 226.753 13.7204 225.43 13.7204C224.165 13.7204 223.091 14.088 222.209 14.8233C221.356 15.5586 220.827 16.6027 220.621 17.9557H230.062Z" fill="white"/>
<path d="M252.174 26.2498V32.6469H248.336C245.601 32.6469 243.468 31.9851 241.939 30.6616C240.41 29.3086 239.645 27.1174 239.645 24.088V14.2939H236.645V8.02921H239.645V2.02921H247.189V8.02921H252.13V14.2939H247.189V24.1763C247.189 24.9116 247.365 25.441 247.718 25.7645C248.071 26.088 248.66 26.2498 249.483 26.2498H252.174Z" fill="white"/>
</svg>
