<svg width="146" height="19" viewBox="0 0 146 19" fill="none" xmlns="http://www.w3.org/2000/svg">
<rect x="96.4116" y="6.45923" width="11.249" height="10.8862" fill="#075e54"/>
<path d="M0 9.85562C0 8.09448 0.381016 6.52808 1.14305 5.15642C1.90508 3.76783 2.96346 2.69251 4.31818 1.93048C5.68984 1.15152 7.23931 0.762032 8.96658 0.762032C11.0833 0.762032 12.8953 1.32086 14.4024 2.4385C15.9095 3.55615 16.9171 5.08021 17.4251 7.01069H12.6497C12.2941 6.2656 11.7861 5.69831 11.1257 5.30883C10.4822 4.91934 9.74554 4.7246 8.91578 4.7246C7.57799 4.7246 6.49421 5.19029 5.66444 6.12166C4.83467 7.05303 4.41979 8.29768 4.41979 9.85562C4.41979 11.4135 4.83467 12.6582 5.66444 13.5896C6.49421 14.5209 7.57799 14.9866 8.91578 14.9866C9.74554 14.9866 10.4822 14.7919 11.1257 14.4024C11.7861 14.0129 12.2941 13.4456 12.6497 12.7005H17.4251C16.9171 14.631 15.9095 16.1551 14.4024 17.2727C12.8953 18.3734 11.0833 18.9238 8.96658 18.9238C7.23931 18.9238 5.68984 18.5428 4.31818 17.7807C2.96346 17.0018 1.90508 15.9265 1.14305 14.5548C0.381016 13.1832 0 11.6168 0 9.85562Z" fill="#075e54"/>
<path d="M17.3164 11.6845C17.3164 10.2282 17.5873 8.94965 18.1292 7.84893C18.688 6.74822 19.4416 5.90152 20.3899 5.30883C21.3382 4.71613 22.3966 4.41979 23.5651 4.41979C24.5642 4.41979 25.4363 4.62299 26.1814 5.02941C26.9434 5.43583 27.5276 5.96925 27.934 6.62968V4.62299H32.2776V18.7968H27.934V16.7901C27.5107 17.4505 26.918 17.984 26.156 18.3904C25.4109 18.7968 24.5388 19 23.5396 19C22.3881 19 21.3382 18.7037 20.3899 18.111C19.4416 17.5013 18.688 16.6462 18.1292 15.5455C17.5873 14.4278 17.3164 13.1408 17.3164 11.6845ZM27.934 11.7099C27.934 10.6261 27.6292 9.77095 27.0196 9.14439C26.4269 8.51783 25.6987 8.20455 24.8351 8.20455C23.9715 8.20455 23.2348 8.51783 22.6252 9.14439C22.0325 9.75401 21.7362 10.6007 21.7362 11.6845C21.7362 12.7683 22.0325 13.6319 22.6252 14.2754C23.2348 14.902 23.9715 15.2152 24.8351 15.2152C25.6987 15.2152 26.4269 14.902 27.0196 14.2754C27.6292 13.6488 27.934 12.7937 27.934 11.7099Z" fill="#075e54"/>
<path d="M32.6513 11.6845C32.6513 10.2282 32.9222 8.94965 33.4641 7.84893C34.0229 6.74822 34.7765 5.90152 35.7248 5.30883C36.6731 4.71613 37.7315 4.41979 38.9 4.41979C39.8313 4.41979 40.678 4.61453 41.4401 5.00401C42.219 5.39349 42.8287 5.91845 43.2689 6.57888V0H47.6125V18.7968H43.2689V16.7647C42.8625 17.4421 42.2783 17.984 41.5163 18.3904C40.7712 18.7968 39.8991 19 38.9 19C37.7315 19 36.6731 18.7037 35.7248 18.111C34.7765 17.5013 34.0229 16.6462 33.4641 15.5455C32.9222 14.4278 32.6513 13.1408 32.6513 11.6845ZM43.2689 11.7099C43.2689 10.6261 42.9641 9.77095 42.3545 9.14439C41.7618 8.51783 41.0336 8.20455 40.17 8.20455C39.3064 8.20455 38.5697 8.51783 37.9601 9.14439C37.3674 9.75401 37.0711 10.6007 37.0711 11.6845C37.0711 12.7683 37.3674 13.6319 37.9601 14.2754C38.5697 14.902 39.3064 15.2152 40.17 15.2152C41.0336 15.2152 41.7618 14.902 42.3545 14.2754C42.9641 13.6488 43.2689 12.7937 43.2689 11.7099Z" fill="#075e54"/>
<path d="M47.9862 11.6845C47.9862 10.2282 48.2571 8.94965 48.799 7.84893C49.3578 6.74822 50.1114 5.90152 51.0597 5.30883C52.008 4.71613 53.0664 4.41979 54.2349 4.41979C55.234 4.41979 56.1061 4.62299 56.8512 5.02941C57.6132 5.43583 58.1974 5.96925 58.6038 6.62968V4.62299H62.9474V18.7968H58.6038V16.7901C58.1805 17.4505 57.5878 17.984 56.8258 18.3904C56.0807 18.7968 55.2086 19 54.2095 19C53.0579 19 52.008 18.7037 51.0597 18.111C50.1114 17.5013 49.3578 16.6462 48.799 15.5455C48.2571 14.4278 47.9862 13.1408 47.9862 11.6845ZM58.6038 11.7099C58.6038 10.6261 58.299 9.77095 57.6894 9.14439C57.0967 8.51783 56.3685 8.20455 55.5049 8.20455C54.6413 8.20455 53.9046 8.51783 53.295 9.14439C52.7023 9.75401 52.406 10.6007 52.406 11.6845C52.406 12.7683 52.7023 13.6319 53.295 14.2754C53.9046 14.902 54.6413 15.2152 55.5049 15.2152C56.3685 15.2152 57.0967 14.902 57.6894 14.2754C58.299 13.6488 58.6038 12.7937 58.6038 11.7099Z" fill="#075e54"/>
<path d="M69.9508 19C68.7146 19 67.6139 18.7883 66.6486 18.365C65.6834 17.9416 64.9214 17.3659 64.3625 16.6377C63.8037 15.8926 63.4904 15.0628 63.4227 14.1484H67.7155C67.7663 14.6395 67.9949 15.0374 68.4013 15.3422C68.8077 15.6471 69.3073 15.7995 69.9 15.7995C70.4419 15.7995 70.8568 15.6979 71.1446 15.4947C71.4494 15.2745 71.6018 14.9951 71.6018 14.6564C71.6018 14.25 71.3902 13.9537 70.9668 13.7674C70.5435 13.5642 69.8576 13.344 68.9093 13.1069C67.8933 12.8699 67.0466 12.6243 66.3692 12.3703C65.6919 12.0994 65.1076 11.6845 64.6166 11.1257C64.1255 10.5499 63.8799 9.77941 63.8799 8.81417C63.8799 8.00134 64.1001 7.26471 64.5404 6.60428C64.9976 5.92692 65.658 5.39349 66.5216 5.00401C67.4022 4.61453 68.4436 4.41979 69.646 4.41979C71.424 4.41979 72.8211 4.86007 73.8371 5.74064C74.8701 6.62121 75.4628 7.78966 75.6152 9.24599H71.6018C71.5341 8.7549 71.314 8.36542 70.9414 8.07754C70.5858 7.78966 70.1116 7.64572 69.519 7.64572C69.0109 7.64572 68.6215 7.74733 68.3505 7.95054C68.0796 8.13681 67.9441 8.39929 67.9441 8.73797C67.9441 9.14439 68.1558 9.4492 68.5791 9.65241C69.0194 9.85561 69.6968 10.0588 70.6112 10.262C71.6611 10.533 72.5163 10.8039 73.1767 11.0749C73.8371 11.3289 74.4129 11.7522 74.904 12.3449C75.412 12.9207 75.6745 13.6996 75.6914 14.6818C75.6914 15.5116 75.4543 16.2567 74.9802 16.9171C74.523 17.5606 73.8541 18.0686 72.9735 18.4412C72.1099 18.8137 71.1023 19 69.9508 19Z" fill="#075e54"/>
<path d="M84.3435 15.1136V18.7968H82.1336C80.5587 18.7968 79.331 18.4158 78.4504 17.6537C77.5698 16.8748 77.1296 15.6132 77.1296 13.869V8.22995H75.4023V4.62299H77.1296V1.16845H81.4731V4.62299H84.3181V8.22995H81.4731V13.9198C81.4731 14.3431 81.5747 14.648 81.778 14.8342C81.9812 15.0205 82.3198 15.1136 82.794 15.1136H84.3435Z" fill="#075e54"/>
<path d="M89.2014 6.98529C89.7094 6.20633 90.3445 5.5967 91.1065 5.15642C91.8685 4.6992 92.7152 4.47059 93.6466 4.47059V9.06818H92.4527C91.369 9.06818 90.5561 9.30526 90.0143 9.77941C89.4724 10.2366 89.2014 11.0495 89.2014 12.2179V18.7968H84.8578V4.62299H89.2014V6.98529Z" fill="#075e54"/>
<path d="M92.954 11.6845C92.954 10.2282 93.225 8.94965 93.7669 7.84893C94.3257 6.74822 95.0792 5.90152 96.0275 5.30883C96.9759 4.71613 98.0342 4.41979 99.2027 4.41979C100.202 4.41979 101.074 4.62299 101.819 5.02941C102.581 5.43583 103.165 5.96925 103.572 6.62968V4.62299H107.915V18.7968H103.572V16.7901C103.148 17.4505 102.556 17.984 101.794 18.3904C101.049 18.7968 100.176 19 99.1773 19C98.0258 19 96.9759 18.7037 96.0275 18.111C95.0792 17.5013 94.3257 16.6462 93.7669 15.5455C93.225 14.4278 92.954 13.1408 92.954 11.6845ZM103.572 11.7099C103.572 10.6261 103.267 9.77095 102.657 9.14439C102.065 8.51783 101.336 8.20455 100.473 8.20455C99.6091 8.20455 98.8725 8.51783 98.2628 9.14439C97.6702 9.75401 97.3738 10.6007 97.3738 11.6845C97.3738 12.7683 97.6702 13.6319 98.2628 14.2754C98.8725 14.902 99.6091 15.2152 100.473 15.2152C101.336 15.2152 102.065 14.902 102.657 14.2754C103.267 13.6488 103.572 12.7937 103.572 11.7099Z" fill="#075e54"/>
<g clip-path="url(#clip0_104_3258)">
<path d="M97.2961 11.3581C97.9015 11.3581 98.3922 10.8674 98.3922 10.2619C98.3922 9.65655 97.9015 9.16577 97.2961 9.16577C96.6907 9.16577 96.1999 9.65655 96.1999 10.2619C96.1999 10.8674 96.6907 11.3581 97.2961 11.3581Z" fill="#dcf8c6"/>
<path d="M99.2692 9.60422C99.8746 9.60422 100.365 9.11344 100.365 8.50804C100.365 7.90264 99.8746 7.41187 99.2692 7.41187C98.6638 7.41187 98.173 7.90264 98.173 8.50804C98.173 9.11344 98.6638 9.60422 99.2692 9.60422Z" fill="#dcf8c6"/>
<path d="M101.9 9.60422C102.505 9.60422 102.996 9.11344 102.996 8.50804C102.996 7.90264 102.505 7.41187 101.9 7.41187C101.295 7.41187 100.804 7.90264 100.804 8.50804C100.804 9.11344 101.295 9.60422 101.9 9.60422Z" fill="#dcf8c6"/>
<path d="M103.873 11.3581C104.478 11.3581 104.969 10.8674 104.969 10.2619C104.969 9.65655 104.478 9.16577 103.873 9.16577C103.268 9.16577 102.777 9.65655 102.777 10.2619C102.777 10.8674 103.268 11.3581 103.873 11.3581Z" fill="#dcf8c6"/>
<path d="M102.926 12.6122C102.545 12.1649 102.224 11.7835 101.839 11.3362C101.637 11.0994 101.378 10.8627 101.071 10.7574C101.023 10.7399 100.975 10.7267 100.927 10.718C100.817 10.7004 100.699 10.7004 100.585 10.7004C100.471 10.7004 100.352 10.7004 100.238 10.7224C100.19 10.7311 100.142 10.7443 100.093 10.7618C99.7865 10.8671 99.5322 11.1038 99.3261 11.3406C98.9447 11.7878 98.6246 12.1693 98.2387 12.6166C97.6643 13.191 96.9584 13.8267 97.0899 14.7168C97.2171 15.1641 97.5372 15.6069 98.1116 15.7341C98.4317 15.7999 99.4533 15.5412 100.541 15.5412H100.62C101.707 15.5412 102.729 15.7955 103.049 15.7341C103.623 15.6069 103.943 15.1597 104.07 14.7168C104.206 13.8224 103.5 13.1866 102.926 12.6122Z" fill="#dcf8c6"/>
</g>
<path d="M123.188 6.70573C123.188 7.73871 122.951 8.68701 122.477 9.55065C122.003 10.3974 121.274 11.0832 120.292 11.6081C119.31 12.1331 118.091 12.3956 116.634 12.3956H113.942V18.7966H109.598V0.965088H116.634C118.057 0.965088 119.259 1.21063 120.241 1.70172C121.224 2.19281 121.96 2.87017 122.451 3.7338C122.942 4.59744 123.188 5.58808 123.188 6.70573ZM116.304 8.94102C117.134 8.94102 117.752 8.74628 118.159 8.3568C118.565 7.96731 118.768 7.41696 118.768 6.70573C118.768 5.9945 118.565 5.44414 118.159 5.05466C117.752 4.66518 117.134 4.47043 116.304 4.47043H113.942V8.94102H116.304Z" fill="#25d366"/>
<path d="M136.905 11.4811C136.905 11.8875 136.88 12.3109 136.829 12.7512H126.999C127.066 13.6318 127.346 14.3091 127.837 14.7833C128.345 15.2405 128.963 15.4691 129.691 15.4691C130.775 15.4691 131.529 15.0119 131.952 14.0974H136.575C136.338 15.0288 135.906 15.867 135.279 16.6121C134.67 17.3572 133.899 17.9415 132.968 18.3648C132.037 18.7882 130.995 18.9998 129.844 18.9998C128.455 18.9998 127.219 18.7035 126.135 18.1108C125.051 17.5181 124.205 16.6714 123.595 15.5707C122.985 14.47 122.681 13.183 122.681 11.7097C122.681 10.2365 122.977 8.94949 123.57 7.84878C124.179 6.74806 125.026 5.90136 126.11 5.30867C127.193 4.71598 128.438 4.41963 129.844 4.41963C131.215 4.41963 132.435 4.70751 133.501 5.28327C134.568 5.85903 135.398 6.68033 135.991 7.74717C136.6 8.81402 136.905 10.0587 136.905 11.4811ZM132.46 10.3381C132.46 9.59299 132.206 9.00029 131.698 8.56001C131.19 8.11972 130.555 7.89958 129.793 7.89958C129.065 7.89958 128.447 8.11126 127.939 8.53461C127.447 8.95796 127.143 9.55912 127.024 10.3381H132.46Z" fill="#25d366"/>
<path d="M145.191 15.1135V18.7966H142.981C141.406 18.7966 140.179 18.4156 139.298 17.6536C138.418 16.8746 137.977 15.613 137.977 13.8688V8.22979H136.25V4.62284H137.977V1.1683H142.321V4.62284H145.166V8.22979H142.321V13.9196C142.321 14.343 142.423 14.6478 142.626 14.8341C142.829 15.0203 143.168 15.1135 143.642 15.1135H145.191Z" fill="#25d366"/>
<defs>
<clipPath id="clip0_104_3258">
<rect width="10.5233" height="10.5233" fill="white" transform="translate(95.3229 6.09644)"/>
</clipPath>
</defs>
</svg>
